<svg class="main-svg" xmlns="http://www.w3.org/2000/svg" xmlns:xlink="http://www.w3.org/1999/xlink" width="300" height="160" style="" viewBox="0 0 300 160"><rect x="0" y="0" width="300" height="160" style="fill: rgb(0, 0, 0); fill-opacity: 0;"/><defs id="defs-603218"><g class="clips"><clipPath id="clip603218xyplot" class="plotclip"><rect width="300" height="160"/></clipPath><clipPath class="axesclip" id="clip603218x"><rect x="0" y="0" width="300" height="160"/></clipPath><clipPath class="axesclip" id="clip603218y"><rect x="0" y="0" width="300" height="160"/></clipPath><clipPath class="axesclip" id="clip603218xy"><rect x="0" y="0" width="300" height="160"/></clipPath></g><g class="gradients"/><g class="patterns"/></defs><g class="bglayer"><rect class="bg" x="0" y="0" width="300" height="160" style="fill: rgb(0, 0, 0); fill-opacity: 0; stroke-width: 0;"/></g><g class="layer-below"><g class="imagelayer"/><g class="shapelayer"/></g><g class="cartesianlayer"><g class="subplot xy"><g class="layer-subplot"><g class="shapelayer"/><g class="imagelayer"/></g><g class="minor-gridlayer"><g class="x"/><g class="y"/></g><g class="gridlayer"><g class="x"/><g class="y"/></g><g class="zerolinelayer"/><g class="layer-between"><g class="shapelayer"/><g class="imagelayer"/></g><path class="xlines-below"/><path class="ylines-below"/><g class="overlines-below"/><g class="xaxislayer-below"/><g class="yaxislayer-below"/><g class="overaxes-below"/><g class="overplot"><g class="xy" transform="" clip-path="url(#clip603218xyplot)"><g class="scatterlayer mlayer"><g class="trace scatter traced26a20" style="stroke-miterlimit: 2; opacity: 1;"><g class="fills"/><g class="errorbars"/><g class="lines"><path class="js-line" d="M18.75,11.75L45,15.15L62.5,16.31L71.25,128.7L97.5,125.65L106.25,148.25L123.75,148.2L281.25,148.19" style="vector-effect: none; fill: none; stroke: rgb(0, 255, 255); stroke-opacity: 1; stroke-width: 2px; opacity: 1;"/></g><g class="points"><path class="point" transform="translate(18.75,11.75)" d="M3,0A3,3 0 1,1 0,-3A3,3 0 0,1 3,0Z" style="opacity: 1; stroke-width: 0px; fill: rgb(0, 255, 255); fill-opacity: 1;"/><path class="point" transform="translate(36.25,14.25)" d="M3,0A3,3 0 1,1 0,-3A3,3 0 0,1 3,0Z" style="opacity: 1; stroke-width: 0px; fill: rgb(0, 255, 255); fill-opacity: 1;"/><path class="point" transform="translate(45,15.15)" d="M3,0A3,3 0 1,1 0,-3A3,3 0 0,1 3,0Z" style="opacity: 1; stroke-width: 0px; fill: rgb(0, 255, 255); fill-opacity: 1;"/><path class="point" transform="translate(62.5,16.31)" d="M3,0A3,3 0 1,1 0,-3A3,3 0 0,1 3,0Z" style="opacity: 1; stroke-width: 0px; fill: rgb(0, 255, 255); fill-opacity: 1;"/><path class="point" transform="translate(71.25,128.7)" d="M3,0A3,3 0 1,1 0,-3A3,3 0 0,1 3,0Z" style="opacity: 1; stroke-width: 0px; fill: rgb(0, 255, 255); fill-opacity: 1;"/><path class="point" transform="translate(97.5,125.65)" d="M3,0A3,3 0 1,1 0,-3A3,3 0 0,1 3,0Z" style="opacity: 1; stroke-width: 0px; fill: rgb(0, 255, 255); fill-opacity: 1;"/><path class="point" transform="translate(106.25,148.25)" d="M3,0A3,3 0 1,1 0,-3A3,3 0 0,1 3,0Z" style="opacity: 1; stroke-width: 0px; fill: rgb(0, 255, 255); fill-opacity: 1;"/><path class="point" transform="translate(123.75,148.2)" d="M3,0A3,3 0 1,1 0,-3A3,3 0 0,1 3,0Z" style="opacity: 1; stroke-width: 0px; fill: rgb(0, 255, 255); fill-opacity: 1;"/><path class="point" transform="translate(141.25,148.19)" d="M3,0A3,3 0 1,1 0,-3A3,3 0 0,1 3,0Z" style="opacity: 1; stroke-width: 0px; fill: rgb(0, 255, 255); fill-opacity: 1;"/><path class="point" transform="translate(158.75,148.19)" d="M3,0A3,3 0 1,1 0,-3A3,3 0 0,1 3,0Z" style="opacity: 1; stroke-width: 0px; fill: rgb(0, 255, 255); fill-opacity: 1;"/><path class="point" transform="translate(176.25,148.19)" d="M3,0A3,3 0 1,1 0,-3A3,3 0 0,1 3,0Z" style="opacity: 1; stroke-width: 0px; fill: rgb(0, 255, 255); fill-opacity: 1;"/><path class="point" transform="translate(185,148.19)" d="M3,0A3,3 0 1,1 0,-3A3,3 0 0,1 3,0Z" style="opacity: 1; stroke-width: 0px; fill: rgb(0, 255, 255); fill-opacity: 1;"/><path class="point" transform="translate(211.25,148.19)" d="M3,0A3,3 0 1,1 0,-3A3,3 0 0,1 3,0Z" style="opacity: 1; stroke-width: 0px; fill: rgb(0, 255, 255); fill-opacity: 1;"/><path class="point" transform="translate(246.25,148.19)" d="M3,0A3,3 0 1,1 0,-3A3,3 0 0,1 3,0Z" style="opacity: 1; stroke-width: 0px; fill: rgb(0, 255, 255); fill-opacity: 1;"/><path class="point" transform="translate(281.25,148.19)" d="M3,0A3,3 0 1,1 0,-3A3,3 0 0,1 3,0Z" style="opacity: 1; stroke-width: 0px; fill: rgb(0, 255, 255); fill-opacity: 1;"/></g><g class="text"/></g></g></g></g><g class="zerolinelayer-above"/><path class="xlines-above crisp" d="M0,0" style="fill: none;"/><path class="ylines-above crisp" d="M0,0" style="fill: none;"/><g class="overlines-above"/><g class="xaxislayer-above"/><g class="yaxislayer-above"/><g class="overaxes-above"/></g></g><g class="polarlayer"/><g class="smithlayer"/><g class="ternarylayer"/><g class="geolayer"/><g class="funnelarealayer"/><g class="pielayer"/><g class="iciclelayer"/><g class="treemaplayer"/><g class="sunburstlayer"/><g class="glimages"/><defs id="topdefs-603218"><g class="clips"/></defs><g class="layer-above"><g class="imagelayer"/><g class="shapelayer"><g class="shape-group" data-index="0" clip-path="url(#clip603218x)"><path data-index="0" fill-rule="evenodd" d="M74.58,160L74.58,0" style="opacity: 1; stroke: rgb(0, 255, 0); stroke-opacity: 1; fill: rgb(0, 0, 0); fill-opacity: 0; stroke-dasharray: 3px, 3px; stroke-width: 2px;"/></g></g></g><g class="infolayer"><g class="g-gtitle"/></g></svg>