<svg class="main-svg" xmlns="http://www.w3.org/2000/svg" xmlns:xlink="http://www.w3.org/1999/xlink" width="1200" height="600" style="" viewBox="0 0 1200 600"><rect x="0" y="0" width="1200" height="600" style="fill: rgb(17, 17, 17); fill-opacity: 1;"/><defs id="defs-f33168"><g class="clips"><clipPath id="clipf33168xyplot" class="plotclip"><rect width="954" height="376"/></clipPath><clipPath class="axesclip" id="clipf33168x"><rect x="80" y="0" width="954" height="600"/></clipPath><clipPath class="axesclip" id="clipf33168y"><rect x="0" y="100" width="1200" height="376"/></clipPath><clipPath class="axesclip" id="clipf33168xy"><rect x="80" y="100" width="954" height="376"/></clipPath></g><g class="gradients"/><g class="patterns"/></defs><g class="bglayer"/><g class="layer-below"><g class="imagelayer"/><g class="shapelayer"/></g><g class="cartesianlayer"><g class="subplot xy"><g class="layer-subplot"><g class="shapelayer"/><g class="imagelayer"/></g><g class="minor-gridlayer"><g class="x"/><g class="y"/></g><g class="gridlayer"><g class="x"><path class="xgrid crisp" transform="translate(132.7,0)" d="M0,100v376" style="stroke: rgb(40, 52, 66); stroke-opacity: 1; stroke-width: 1px;"/><path class="xgrid crisp" transform="translate(274.34000000000003,0)" d="M0,100v376" style="stroke: rgb(40, 52, 66); stroke-opacity: 1; stroke-width: 1px;"/><path class="xgrid crisp" transform="translate(415.98,0)" d="M0,100v376" style="stroke: rgb(40, 52, 66); stroke-opacity: 1; stroke-width: 1px;"/><path class="xgrid crisp" transform="translate(699.27,0)" d="M0,100v376" style="stroke: rgb(40, 52, 66); stroke-opacity: 1; stroke-width: 1px;"/><path class="xgrid crisp" transform="translate(840.91,0)" d="M0,100v376" style="stroke: rgb(40, 52, 66); stroke-opacity: 1; stroke-width: 1px;"/><path class="xgrid crisp" transform="translate(982.55,0)" d="M0,100v376" style="stroke: rgb(40, 52, 66); stroke-opacity: 1; stroke-width: 1px;"/></g><g class="y"><path class="ygrid crisp" transform="translate(0,442.98)" d="M80,0h954" style="stroke: rgb(40, 52, 66); stroke-opacity: 1; stroke-width: 1px;"/><path class="ygrid crisp" transform="translate(0,365.18)" d="M80,0h954" style="stroke: rgb(40, 52, 66); stroke-opacity: 1; stroke-width: 1px;"/><path class="ygrid crisp" transform="translate(0,209.57)" d="M80,0h954" style="stroke: rgb(40, 52, 66); stroke-opacity: 1; stroke-width: 1px;"/><path class="ygrid crisp" transform="translate(0,131.77)" d="M80,0h954" style="stroke: rgb(40, 52, 66); stroke-opacity: 1; stroke-width: 1px;"/></g></g><g class="zerolinelayer"><path class="xzl zl crisp" transform="translate(557.63,0)" d="M0,100v376" style="stroke: rgb(40, 52, 66); stroke-opacity: 1; stroke-width: 2px;"/><path class="yzl zl crisp" transform="translate(0,287.38)" d="M80,0h954" style="stroke: rgb(40, 52, 66); stroke-opacity: 1; stroke-width: 2px;"/></g><g class="layer-between"><g class="shapelayer"/><g class="imagelayer"/></g><path class="xlines-below"/><path class="ylines-below"/><g class="overlines-below"/><g class="xaxislayer-below"/><g class="yaxislayer-below"/><g class="overaxes-below"/><g class="overplot"><g class="xy" transform="translate(80,100)" clip-path="url(#clipf33168xyplot)"><g class="scatterlayer mlayer"><g class="trace scatter trace43ca68" style="stroke-miterlimit: 2; opacity: 1;"><g class="fills"/><g class="errorbars"/><g class="lines"><path class="js-line" d="M52.7,352.2L902.55,22.55" style="vector-effect: none; fill: none; stroke: rgb(167, 139, 250); stroke-opacity: 1; stroke-width: 3px; opacity: 1;"/></g><g class="points"><path class="point" transform="translate(52.7,352.2)" d="M3,0A3,3 0 1,1 0,-3A3,3 0 0,1 3,0Z" style="opacity: 1; stroke-width: 0px; fill: rgb(167, 139, 250); fill-opacity: 1;"/><path class="point" transform="translate(194.34,297.26)" d="M3,0A3,3 0 1,1 0,-3A3,3 0 0,1 3,0Z" style="opacity: 1; stroke-width: 0px; fill: rgb(167, 139, 250); fill-opacity: 1;"/><path class="point" transform="translate(335.98,242.32)" d="M3,0A3,3 0 1,1 0,-3A3,3 0 0,1 3,0Z" style="opacity: 1; stroke-width: 0px; fill: rgb(167, 139, 250); fill-opacity: 1;"/><path class="point" transform="translate(477.63,187.38)" d="M3,0A3,3 0 1,1 0,-3A3,3 0 0,1 3,0Z" style="opacity: 1; stroke-width: 0px; fill: rgb(167, 139, 250); fill-opacity: 1;"/><path class="point" transform="translate(619.27,132.43)" d="M3,0A3,3 0 1,1 0,-3A3,3 0 0,1 3,0Z" style="opacity: 1; stroke-width: 0px; fill: rgb(167, 139, 250); fill-opacity: 1;"/><path class="point" transform="translate(760.91,77.49)" d="M3,0A3,3 0 1,1 0,-3A3,3 0 0,1 3,0Z" style="opacity: 1; stroke-width: 0px; fill: rgb(167, 139, 250); fill-opacity: 1;"/><path class="point" transform="translate(902.55,22.55)" d="M3,0A3,3 0 1,1 0,-3A3,3 0 0,1 3,0Z" style="opacity: 1; stroke-width: 0px; fill: rgb(167, 139, 250); fill-opacity: 1;"/></g><g class="text"/></g><g class="trace scatter traceb83a21" style="stroke-miterlimit: 2; opacity: 1;"><g class="fills"/><g class="errorbars"/><g class="lines"/><g class="points"><path class="point" transform="translate(52.7,352.2)" d="M4,0A4,4 0 1,1 0,-4A4,4 0 0,1 4,0Z" style="opacity: 1; stroke-width: 0px; fill: rgb(167, 139, 250); fill-opacity: 1;"/></g><g class="text"/></g></g></g></g><g class="zerolinelayer-above"/><path class="xlines-above crisp" d="M0,0" style="fill: none;"/><path class="ylines-above crisp" d="M0,0" style="fill: none;"/><g class="overlines-above"/><g class="xaxislayer-above"><g class="xtick"><text text-anchor="middle" x="0" y="489" transform="translate(132.7,0)" style="font-family: 'Open Sans', verdana, arial, sans-serif; font-size: 12px; fill: rgb(242, 245, 250); fill-opacity: 1; white-space: pre;">−3</text></g><g class="xtick"><text text-anchor="middle" x="0" y="489" style="font-family: 'Open Sans', verdana, arial, sans-serif; font-size: 12px; fill: rgb(242, 245, 250); fill-opacity: 1; white-space: pre;" transform="translate(274.34000000000003,0)">−2</text></g><g class="xtick"><text text-anchor="middle" x="0" y="489" style="font-family: 'Open Sans', verdana, arial, sans-serif; font-size: 12px; fill: rgb(242, 245, 250); fill-opacity: 1; white-space: pre;" transform="translate(415.98,0)">−1</text></g><g class="xtick"><text text-anchor="middle" x="0" y="489" style="font-family: 'Open Sans', verdana, arial, sans-serif; font-size: 12px; fill: rgb(242, 245, 250); fill-opacity: 1; white-space: pre;" transform="translate(557.63,0)">0</text></g><g class="xtick"><text text-anchor="middle" x="0" y="489" style="font-family: 'Open Sans', verdana, arial, sans-serif; font-size: 12px; fill: rgb(242, 245, 250); fill-opacity: 1; white-space: pre;" transform="translate(699.27,0)">1</text></g><g class="xtick"><text text-anchor="middle" x="0" y="489" style="font-family: 'Open Sans', verdana, arial, sans-serif; font-size: 12px; fill: rgb(242, 245, 250); fill-opacity: 1; white-space: pre;" transform="translate(840.91,0)">2</text></g><g class="xtick"><text text-anchor="middle" x="0" y="489" style="font-family: 'Open Sans', verdana, arial, sans-serif; font-size: 12px; fill: rgb(242, 245, 250); fill-opacity: 1; white-space: pre;" transform="translate(982.55,0)">3</text></g></g><g class="yaxislayer-above"><g class="ytick"><text text-anchor="end" x="79" y="4.199999999999999" transform="translate(0,442.98)" style="font-family: 'Open Sans', verdana, arial, sans-serif; font-size: 12px; fill: rgb(242, 245, 250); fill-opacity: 1; white-space: pre;">−100</text></g><g class="ytick"><text text-anchor="end" x="79" y="4.199999999999999" style="font-family: 'Open Sans', verdana, arial, sans-serif; font-size: 12px; fill: rgb(242, 245, 250); fill-opacity: 1; white-space: pre;" transform="translate(0,365.18)">−50</text></g><g class="ytick"><text text-anchor="end" x="79" y="4.199999999999999" style="font-family: 'Open Sans', verdana, arial, sans-serif; font-size: 12px; fill: rgb(242, 245, 250); fill-opacity: 1; white-space: pre;" transform="translate(0,287.38)">0</text></g><g class="ytick"><text text-anchor="end" x="79" y="4.199999999999999" style="font-family: 'Open Sans', verdana, arial, sans-serif; font-size: 12px; fill: rgb(242, 245, 250); fill-opacity: 1; white-space: pre;" transform="translate(0,209.57)">50</text></g><g class="ytick"><text text-anchor="end" x="79" y="4.199999999999999" style="font-family: 'Open Sans', verdana, arial, sans-serif; font-size: 12px; fill: rgb(242, 245, 250); fill-opacity: 1; white-space: pre;" transform="translate(0,131.77)">100</text></g></g><g class="overaxes-above"/></g></g><g class="polarlayer"/><g class="smithlayer"/><g class="ternarylayer"/><g class="geolayer"/><g class="funnelarealayer"/><g class="pielayer"/><g class="iciclelayer"/><g class="treemaplayer"/><g class="sunburstlayer"/><g class="glimages"/><defs id="topdefs-f33168"><g class="clips"/><clipPath id="legendf33168"><rect width="135" height="48" x="0" y="0"/></clipPath></defs><g class="layer-above"><g class="imagelayer"/><g class="shapelayer"/></g><g class="infolayer"><g class="legend" pointer-events="all" transform="translate(1053.08,100)"><rect class="bg" shape-rendering="crispEdges" style="stroke: rgb(68, 68, 68); stroke-opacity: 1; fill: rgb(17, 17, 17); fill-opacity: 1; stroke-width: 0px;" width="135" height="48" x="0" y="0"/><g class="scrollbox" transform="" clip-path="url(#legendf33168)"><g class="groups"><g class="traces" transform="translate(0,14.5)" style="opacity: 1;"><text class="legendtext" text-anchor="start" x="40" y="4.680000000000001" style="font-family: 'Open Sans', verdana, arial, sans-serif; font-size: 12px; fill: rgb(242, 245, 250); fill-opacity: 1; white-space: pre;">ΔΔ vs ΔIV (%)</text><g class="layers" style="opacity: 1;"><g class="legendfill"/><g class="legendlines"><path class="js-line" d="M5,0h30" style="fill: none; stroke: rgb(167, 139, 250); stroke-opacity: 1; stroke-width: 3px;"/></g><g class="legendsymbols"><g class="legendpoints"><path class="scatterpts" transform="translate(20,0)" d="M3,0A3,3 0 1,1 0,-3A3,3 0 0,1 3,0Z" style="opacity: 1; stroke-width: 0px; fill: rgb(167, 139, 250); fill-opacity: 1;"/></g></g></g><rect class="legendtoggle" x="0" y="-9.5" width="129.390625" height="19" style="fill: rgb(0, 0, 0); fill-opacity: 0;"/></g><g class="traces" transform="translate(0,33.5)" style="opacity: 1;"><text class="legendtext" text-anchor="start" x="40" y="4.680000000000001" style="font-family: 'Open Sans', verdana, arial, sans-serif; font-size: 12px; fill: rgb(242, 245, 250); fill-opacity: 1; white-space: pre;">Seleção -3%</text><g class="layers" style="opacity: 1;"><g class="legendfill"/><g class="legendlines"/><g class="legendsymbols"><g class="legendpoints"><path class="scatterpts" transform="translate(20,0)" d="M4,0A4,4 0 1,1 0,-4A4,4 0 0,1 4,0Z" style="opacity: 1; stroke-width: 0px; fill: rgb(167, 139, 250); fill-opacity: 1;"/></g></g></g><rect class="legendtoggle" x="0" y="-9.5" width="129.390625" height="19" style="fill: rgb(0, 0, 0); fill-opacity: 0;"/></g></g></g><rect class="scrollbar" rx="20" ry="3" width="0" height="0" style="fill: rgb(128, 139, 164); fill-opacity: 1;" x="0" y="0"/></g><g class="slider-container"><g class="slider-group" transform="translate(80,516)"><text class="slider-label" text-anchor="left" data-notex="1" x="0" y="15.600000000000001" style="font-family: 'Open Sans', verdana, arial, sans-serif; font-size: 12px; fill: rgb(242, 245, 250); fill-opacity: 1; white-space: pre;">-3%</text><rect class="slider-rail-rect" width="938" height="5" rx="2" ry="2" shape-rendering="crispEdges" transform="translate(8,32.5)" style="stroke: rgb(17, 17, 17); stroke-opacity: 1; fill: rgb(200, 212, 227); fill-opacity: 1; stroke-width: 1px;"/><g class="slider-labels"><g class="slider-label-group" transform="translate(10,72.6)"><text class="slider-label" text-anchor="middle" data-notex="1" x="0" y="0" style="font-family: 'Open Sans', verdana, arial, sans-serif; font-size: 12px; fill: rgb(242, 245, 250); fill-opacity: 1; white-space: pre;">-3%</text></g><g class="slider-label-group" transform="translate(165.66666666666666,72.6)"><text class="slider-label" text-anchor="middle" data-notex="1" x="0" y="0" style="font-family: 'Open Sans', verdana, arial, sans-serif; font-size: 12px; fill: rgb(242, 245, 250); fill-opacity: 1; white-space: pre;">-2%</text></g><g class="slider-label-group" transform="translate(321.3333333333333,72.6)"><text class="slider-label" text-anchor="middle" data-notex="1" x="0" y="0" style="font-family: 'Open Sans', verdana, arial, sans-serif; font-size: 12px; fill: rgb(242, 245, 250); fill-opacity: 1; white-space: pre;">-1%</text></g><g class="slider-label-group" transform="translate(477,72.6)"><text class="slider-label" text-anchor="middle" data-notex="1" x="0" y="0" style="font-family: 'Open Sans', verdana, arial, sans-serif; font-size: 12px; fill: rgb(242, 245, 250); fill-opacity: 1; white-space: pre;">0%</text></g><g class="slider-label-group" transform="translate(632.6666666666666,72.6)"><text class="slider-label" text-anchor="middle" data-notex="1" x="0" y="0" style="font-family: 'Open Sans', verdana, arial, sans-serif; font-size: 12px; fill: rgb(242, 245, 250); fill-opacity: 1; white-space: pre;">+1%</text></g><g class="slider-label-group" transform="translate(788.3333333333334,72.6)"><text class="slider-label" text-anchor="middle" data-notex="1" x="0" y="0" style="font-family: 'Open Sans', verdana, arial, sans-serif; font-size: 12px; fill: rgb(242, 245, 250); fill-opacity: 1; white-space: pre;">+2%</text></g><g class="slider-label-group" transform="translate(944,72.6)"><text class="slider-label" text-anchor="middle" data-notex="1" x="0" y="0" style="font-family: 'Open Sans', verdana, arial, sans-serif; font-size: 12px; fill: rgb(242, 245, 250); fill-opacity: 1; white-space: pre;">+3%</text></g></g><rect class="slider-tick-rect" width="0px" shape-rendering="crispEdges" height="7" transform="translate(10,50)" style="fill: rgb(51, 51, 51); fill-opacity: 1;"/><rect class="slider-tick-rect" width="0px" shape-rendering="crispEdges" height="7" transform="translate(165.66666666666666,50)" style="fill: rgb(51, 51, 51); fill-opacity: 1;"/><rect class="slider-tick-rect" width="0px" shape-rendering="crispEdges" height="7" transform="translate(321.3333333333333,50)" style="fill: rgb(51, 51, 51); fill-opacity: 1;"/><rect class="slider-tick-rect" width="0px" shape-rendering="crispEdges" height="7" transform="translate(477,50)" style="fill: rgb(51, 51, 51); fill-opacity: 1;"/><rect class="slider-tick-rect" width="0px" shape-rendering="crispEdges" height="7" transform="translate(632.6666666666666,50)" style="fill: rgb(51, 51, 51); fill-opacity: 1;"/><rect class="slider-tick-rect" width="0px" shape-rendering="crispEdges" height="7" transform="translate(788.3333333333334,50)" style="fill: rgb(51, 51, 51); fill-opacity: 1;"/><rect class="slider-tick-rect" width="0px" shape-rendering="crispEdges" height="7" transform="translate(944,50)" style="fill: rgb(51, 51, 51); fill-opacity: 1;"/><rect class="slider-rail-touch-rect" width="954" height="47" opacity="0" transform="translate(0,25)" style="pointer-events: all; fill: rgb(200, 212, 227); fill-opacity: 1;"/><rect class="slider-grip-rect" width="20" height="20" rx="10" ry="10" transform="translate(0,25)" style="pointer-events: all; stroke: rgb(17, 17, 17); stroke-opacity: 1; fill: rgb(200, 212, 227); fill-opacity: 1; stroke-width: 1px;"/></g></g><g class="g-gtitle"><text class="gtitle" x="600" y="50" text-anchor="middle" dy="0em" style="opacity: 1; font-family: 'Open Sans', verdana, arial, sans-serif; font-size: 18px; fill: rgb(255, 255, 255); fill-opacity: 1; white-space: pre;">EDI — Vanna Vol-Sensitivity</text></g><g class="g-xtitle"><text class="xtitle" x="557" y="516.3" text-anchor="middle" style="opacity: 1; font-family: 'Open Sans', verdana, arial, sans-serif; font-size: 14px; fill: rgb(242, 245, 250); fill-opacity: 1; white-space: pre;">ΔIV (%)</text></g><g class="g-ytitle"><text class="ytitle" transform="rotate(-90,26.88125,288)" x="26.88125" y="288" text-anchor="middle" style="opacity: 1; font-family: 'Open Sans', verdana, arial, sans-serif; font-size: 14px; fill: rgb(242, 245, 250); fill-opacity: 1; white-space: pre;">ΔΔ estimado (unid. relativa)</text></g></g></svg>